/* XPM */
static char *whereis_symbol[] = {
/* columns rows colors chars-per-pixel */
"24 24 10 1 ",
"  c black",
". c #2A2A2A",
"X c #4C4C4C",
"o c #FF4C4C",
"O c #69E800",
"+ c #FFCF00",
"@ c #0059FB",
"# c #9F9F9F",
"$ c white",
"% c None",
/* pixels */
"%%%%%%%%%%%%%%%%%%%%%%%%",
"%@@@@@@@@@@@@@@@@@@@@%%%",
"%@@@@@@@@@@@OO@++@oo@X%%",
"%@@@@@@@@@@@@@@@@@@@@X#%",
"%@$$$$$$$$$$$$$$$$$$@X#%",
"%@$$$$$$$$$$$$$$$$$$@X#%",
"%@$ $ $ $ $$$$$$$$$ @X#%",
"%@$$$$$$$$$$$$$$$$$$@X#%",
"%@$$$ $ $ $ $$$$$ $ @X#%",
"%@$$$$$$$$$$$$$$$$$$@X#%",
"%@$$$$$ $ $ $ $$$$$ @X#%",
"%@$$$$$$$$$$$$$$$$$$@X#%",
"%@@@@@@@@@@@@@@@@@@@@X#%",
"%@@@@@@@@@@@OO@++@oo@X#%",
"%@@@@@@@@@@@@@@@@@@@@X#%",
"%@                  @X#%",
"%@                  @X#%",
"%@ $$ $$ $$ $$ $$   @X#%",
"%@           .      @X#%",
"%@                  @X#%",
"%@@@@@@@@@@@@@@@@@@@@X#%",
"%%XXXXXXXXXXXXXXXXXXXX#%",
"%%%####################%",
"%%%%%%%%%%%%%%%%%%%%%%%%"
};
