/* XPM */
static char *whereis_symbol_off[] = {
/* columns rows colors chars-per-pixel */
"24 24 10 1 ",
"  c black",
". c #2A2A2A",
"X c #4C4C4C",
"o c #747474",
"O c gray49",
"+ c gray50",
"@ c #9F9F9F",
"# c #A5A5A5",
"$ c white",
"% c None",
/* pixels */
"%%%%%%%%%%%%%%%%%%%%%%%%",
"%OOOOOOOOOOOOOOOOOOOO%%%",
"%OOOOOOOOOOOooOOOO##OX%%",
"%OOOOOOOOOOOOOOOOOOOOX#%",
"%O$$$$$$$$$$$$$$$$$$OX@%",
"%O$$$$$$$$$$$$$$$$$$OX@%",
"%O$ $ $ $ $$$$$$$$$ OX@%",
"%O$$$$$$$$$$$$$$$$$$OX@%",
"%O$$$ $ $ $ $$$$$ $ OX@%",
"%O$$$$$$$$$$$$$$$$$$OX@%",
"%O$$$$$ $ $ $ $$$$$ OX@%",
"%O$$$$$$$$$$$$$$$$$$OX@%",
"%OOOOOOOOOOOOOOOOOOOOX@%",
"%OOOOOOOOOOOooOOOO##OX@%",
"%OOOOOOOOOOOOOOOOOOOOX@%",
"%O                  OX@%",
"%O                  OX@%",
"%O $$ $$ $$ $$ $$   OX@%",
"%O           .      OX@%",
"%O                  OX@%",
"%OOOOOOOOOOOOOOOOOOOOX@%",
"%%XXXXXXXXXXXXXXXXXXXX@%",
"%%%@@@@@@@@@@@@@@@@@@@@%",
"%%%%%%%%%%%%%%%%%%%%%%%%"
};
